solid OpenSCAD_Model
  facet normal -1 0 0
    outer loop
      vertex 0 0 0
      vertex 0 150 2
      vertex 0 150 0
    endloop
  endfacet
  facet normal -1 -0 0
    outer loop
      vertex 0 150 2
      vertex 0 0 0
      vertex 0 0 2
    endloop
  endfacet
  facet normal -0 0 1
    outer loop
      vertex 9.07295 137.147 2
      vertex 36 50 2
      vertex 10.9271 137.147 2
    endloop
  endfacet
  facet normal 0 0 1
    outer loop
      vertex 29.691 38.0878 2
      vertex 12.4271 11.7634 2
      vertex 13 10 2
    endloop
  endfacet
  facet normal 0 0 1
    outer loop
      vertex 36 50 2
      vertex 9.07295 137.147 2
      vertex 29.691 38.0878 2
    endloop
  endfacet
  facet normal 0 0 1
    outer loop
      vertex 29.691 38.0878 2
      vertex 10.9271 12.8532 2
      vertex 12.4271 11.7634 2
    endloop
  endfacet
  facet normal 0 0 1
    outer loop
      vertex 7.57295 138.237 2
      vertex 29.691 38.0878 2
      vertex 9.07295 137.147 2
    endloop
  endfacet
  facet normal 0 0 1
    outer loop
      vertex 29.691 38.0878 2
      vertex 9.07295 12.8532 2
      vertex 10.9271 12.8532 2
    endloop
  endfacet
  facet normal 0 0 1
    outer loop
      vertex 7.57295 11.7634 2
      vertex 29.691 38.0878 2
      vertex 7.57295 138.237 2
    endloop
  endfacet
  facet normal 0 0 1
    outer loop
      vertex 29.691 38.0878 2
      vertex 7.57295 11.7634 2
      vertex 9.07295 12.8532 2
    endloop
  endfacet
  facet normal 0 0 1
    outer loop
      vertex 0 150 2
      vertex 7.57295 138.237 2
      vertex 7 140 2
    endloop
  endfacet
  facet normal 0 0 1
    outer loop
      vertex 7.57295 138.237 2
      vertex 0 150 2
      vertex 7.57295 11.7634 2
    endloop
  endfacet
  facet normal -0 0 1
    outer loop
      vertex 67.427 11.7634 2
      vertex 75 0 2
      vertex 67.427 138.237 2
    endloop
  endfacet
  facet normal 0 0 1
    outer loop
      vertex 75 0 2
      vertex 67.427 11.7634 2
      vertex 68 10 2
    endloop
  endfacet
  facet normal 0 0 1
    outer loop
      vertex 45.5 37.5 2
      vertex 67.427 138.237 2
      vertex 65.927 137.147 2
    endloop
  endfacet
  facet normal 0 0 1
    outer loop
      vertex 67.427 138.237 2
      vertex 45.5 37.5 2
      vertex 67.427 11.7634 2
    endloop
  endfacet
  facet normal 0 0 1
    outer loop
      vertex 39 50 2
      vertex 65.927 137.147 2
      vertex 64.073 137.147 2
    endloop
  endfacet
  facet normal 0 0 1
    outer loop
      vertex 67.427 11.7634 2
      vertex 45.5 37.5 2
      vertex 65.927 12.8532 2
    endloop
  endfacet
  facet normal 0 0 1
    outer loop
      vertex 39 140 2
      vertex 64.073 137.147 2
      vertex 62.5729 138.237 2
    endloop
  endfacet
  facet normal 0 0 1
    outer loop
      vertex 65.927 12.8532 2
      vertex 45.5 37.5 2
      vertex 64.073 12.8532 2
    endloop
  endfacet
  facet normal -0 0 1
    outer loop
      vertex 39 140 2
      vertex 62.5729 138.237 2
      vertex 62 140 2
    endloop
  endfacet
  facet normal -0 0 1
    outer loop
      vertex 44.809 36.5489 2
      vertex 64.073 12.8532 2
      vertex 45.5 37.5 2
    endloop
  endfacet
  facet normal 0 0 1
    outer loop
      vertex 67.427 138.237 2
      vertex 75 150 2
      vertex 68 140 2
    endloop
  endfacet
  facet normal 0 0 1
    outer loop
      vertex 75 150 2
      vertex 67.427 141.763 2
      vertex 68 140 2
    endloop
  endfacet
  facet normal 0 0 1
    outer loop
      vertex 75 150 2
      vertex 65.927 142.853 2
      vertex 67.427 141.763 2
    endloop
  endfacet
  facet normal 0 0 1
    outer loop
      vertex 75 150 2
      vertex 64.073 142.853 2
      vertex 65.927 142.853 2
    endloop
  endfacet
  facet normal 0 0 1
    outer loop
      vertex 64.073 12.8532 2
      vertex 44.809 36.5489 2
      vertex 62.5729 11.7634 2
    endloop
  endfacet
  facet normal 0 0 1
    outer loop
      vertex 65.927 137.147 2
      vertex 39 50 2
      vertex 45.5 37.5 2
    endloop
  endfacet
  facet normal 0 0 1
    outer loop
      vertex 45.5 37.5 2
      vertex 39 50 2
      vertex 44.809 38.4511 2
    endloop
  endfacet
  facet normal 0 0 1
    outer loop
      vertex 43.691 38.0878 2
      vertex 40.55 37.5 2
      vertex 43.691 36.9122 2
    endloop
  endfacet
  facet normal -0 -0 1
    outer loop
      vertex 39.9675 39.2927 2
      vertex 44.809 38.4511 2
      vertex 39 50 2
    endloop
  endfacet
  facet normal 0 0 1
    outer loop
      vertex 44.809 38.4511 2
      vertex 39.9675 39.2927 2
      vertex 43.691 38.0878 2
    endloop
  endfacet
  facet normal 0 0 1
    outer loop
      vertex 64.073 137.147 2
      vertex 39 140 2
      vertex 39 50 2
    endloop
  endfacet
  facet normal 0 0 1
    outer loop
      vertex 62.5729 141.763 2
      vertex 39 140 2
      vertex 62 140 2
    endloop
  endfacet
  facet normal 0 0 1
    outer loop
      vertex 64.073 142.853 2
      vertex 39 140 2
      vertex 62.5729 141.763 2
    endloop
  endfacet
  facet normal 0 0 1
    outer loop
      vertex 75 150 2
      vertex 39 140 2
      vertex 64.073 142.853 2
    endloop
  endfacet
  facet normal 0 0 1
    outer loop
      vertex 75 150 2
      vertex 36 140 2
      vertex 39 140 2
    endloop
  endfacet
  facet normal 0 0 1
    outer loop
      vertex 12.4271 138.237 2
      vertex 36 140 2
      vertex 13 140 2
    endloop
  endfacet
  facet normal 0 0 1
    outer loop
      vertex 10.9271 137.147 2
      vertex 36 140 2
      vertex 12.4271 138.237 2
    endloop
  endfacet
  facet normal 0 -0 1
    outer loop
      vertex 31.5 37.5 2
      vertex 35.0325 39.2927 2
      vertex 30.809 38.4511 2
    endloop
  endfacet
  facet normal 0 0 1
    outer loop
      vertex 35.0325 39.2927 2
      vertex 31.5 37.5 2
      vertex 34.45 37.5 2
    endloop
  endfacet
  facet normal 0 0 1
    outer loop
      vertex 36 50 2
      vertex 30.809 38.4511 2
      vertex 35.0325 39.2927 2
    endloop
  endfacet
  facet normal 0 0 1
    outer loop
      vertex 36 140 2
      vertex 10.9271 137.147 2
      vertex 36 50 2
    endloop
  endfacet
  facet normal 0 0 1
    outer loop
      vertex 36 50 2
      vertex 29.691 38.0878 2
      vertex 30.809 38.4511 2
    endloop
  endfacet
  facet normal -0 0 1
    outer loop
      vertex 0 150 2
      vertex 36 140 2
      vertex 75 150 2
    endloop
  endfacet
  facet normal 0 0 1
    outer loop
      vertex 36 140 2
      vertex 12.4271 141.763 2
      vertex 13 140 2
    endloop
  endfacet
  facet normal 0 0 1
    outer loop
      vertex 36 140 2
      vertex 10.9271 142.853 2
      vertex 12.4271 141.763 2
    endloop
  endfacet
  facet normal 0 0 1
    outer loop
      vertex 36 140 2
      vertex 0 150 2
      vertex 10.9271 142.853 2
    endloop
  endfacet
  facet normal 0 0 1
    outer loop
      vertex 0 0 2
      vertex 7.57295 11.7634 2
      vertex 0 150 2
    endloop
  endfacet
  facet normal 0 0 1
    outer loop
      vertex 7.57295 141.763 2
      vertex 0 150 2
      vertex 7 140 2
    endloop
  endfacet
  facet normal 0 0 1
    outer loop
      vertex 9.07295 142.853 2
      vertex 0 150 2
      vertex 7.57295 141.763 2
    endloop
  endfacet
  facet normal 0 0 1
    outer loop
      vertex 10.9271 142.853 2
      vertex 0 150 2
      vertex 9.07295 142.853 2
    endloop
  endfacet
  facet normal 0 0 1
    outer loop
      vertex 75 150 2
      vertex 67.427 138.237 2
      vertex 75 0 2
    endloop
  endfacet
  facet normal -0 0 1
    outer loop
      vertex 67.427 8.23664 2
      vertex 75 0 2
      vertex 68 10 2
    endloop
  endfacet
  facet normal -0 0 1
    outer loop
      vertex 65.927 7.14683 2
      vertex 75 0 2
      vertex 67.427 8.23664 2
    endloop
  endfacet
  facet normal -0 0 1
    outer loop
      vertex 64.073 7.14683 2
      vertex 75 0 2
      vertex 65.927 7.14683 2
    endloop
  endfacet
  facet normal -0 0 1
    outer loop
      vertex 38.4425 34.5993 2
      vertex 62.5729 11.7634 2
      vertex 44.809 36.5489 2
    endloop
  endfacet
  facet normal 0 0 1
    outer loop
      vertex 62.5729 11.7634 2
      vertex 38.4425 34.5993 2
      vertex 62 10 2
    endloop
  endfacet
  facet normal 0 0 1
    outer loop
      vertex 39.9675 35.7073 2
      vertex 44.809 36.5489 2
      vertex 43.691 36.9122 2
    endloop
  endfacet
  facet normal 0 0 1
    outer loop
      vertex 39.9675 35.7073 2
      vertex 43.691 36.9122 2
      vertex 40.55 37.5 2
    endloop
  endfacet
  facet normal 0 0 1
    outer loop
      vertex 44.809 36.5489 2
      vertex 39.9675 35.7073 2
      vertex 38.4425 34.5993 2
    endloop
  endfacet
  facet normal 0 0 1
    outer loop
      vertex 13 10 2
      vertex 62 10 2
      vertex 38.4425 34.5993 2
    endloop
  endfacet
  facet normal 0 0 1
    outer loop
      vertex 13 10 2
      vertex 38.4425 34.5993 2
      vertex 36.5575 34.5993 2
    endloop
  endfacet
  facet normal 0 0 1
    outer loop
      vertex 30.809 36.5489 2
      vertex 36.5575 34.5993 2
      vertex 35.0325 35.7073 2
    endloop
  endfacet
  facet normal -0 0 1
    outer loop
      vertex 31.5 37.5 2
      vertex 35.0325 35.7073 2
      vertex 34.45 37.5 2
    endloop
  endfacet
  facet normal -0 0 1
    outer loop
      vertex 30.809 36.5489 2
      vertex 35.0325 35.7073 2
      vertex 31.5 37.5 2
    endloop
  endfacet
  facet normal 0 0 1
    outer loop
      vertex 36.5575 34.5993 2
      vertex 30.809 36.5489 2
      vertex 13 10 2
    endloop
  endfacet
  facet normal 0 0 1
    outer loop
      vertex 13 10 2
      vertex 30.809 36.5489 2
      vertex 29.691 36.9122 2
    endloop
  endfacet
  facet normal 0 0 1
    outer loop
      vertex 29.691 38.0878 2
      vertex 13 10 2
      vertex 29.691 36.9122 2
    endloop
  endfacet
  facet normal 0 0 1
    outer loop
      vertex 62 10 2
      vertex 13 10 2
      vertex 62.5729 8.23664 2
    endloop
  endfacet
  facet normal 0 0 1
    outer loop
      vertex 12.4271 8.23664 2
      vertex 62.5729 8.23664 2
      vertex 13 10 2
    endloop
  endfacet
  facet normal 0 0 1
    outer loop
      vertex 62.5729 8.23664 2
      vertex 12.4271 8.23664 2
      vertex 64.073 7.14683 2
    endloop
  endfacet
  facet normal 0 0 1
    outer loop
      vertex 10.9271 7.14683 2
      vertex 64.073 7.14683 2
      vertex 12.4271 8.23664 2
    endloop
  endfacet
  facet normal 0 0 1
    outer loop
      vertex 64.073 7.14683 2
      vertex 10.9271 7.14683 2
      vertex 75 0 2
    endloop
  endfacet
  facet normal 0 0 1
    outer loop
      vertex 0 0 2
      vertex 10.9271 7.14683 2
      vertex 9.07295 7.14683 2
    endloop
  endfacet
  facet normal 0 0 1
    outer loop
      vertex 10.9271 7.14683 2
      vertex 0 0 2
      vertex 75 0 2
    endloop
  endfacet
  facet normal 0 0 1
    outer loop
      vertex 7.57295 8.23664 2
      vertex 0 0 2
      vertex 9.07295 7.14683 2
    endloop
  endfacet
  facet normal 0 0 1
    outer loop
      vertex 7 10 2
      vertex 0 0 2
      vertex 7.57295 8.23664 2
    endloop
  endfacet
  facet normal 0 0 1
    outer loop
      vertex 7.57295 11.7634 2
      vertex 0 0 2
      vertex 7 10 2
    endloop
  endfacet
  facet normal 0 0 1
    outer loop
      vertex 43.691 38.0878 2
      vertex 39.9675 39.2927 2
      vertex 40.55 37.5 2
    endloop
  endfacet
  facet normal 0 0 1
    outer loop
      vertex 39 50 2
      vertex 38.4425 40.4007 2
      vertex 39.9675 39.2927 2
    endloop
  endfacet
  facet normal 0 0 1
    outer loop
      vertex 39 50 2
      vertex 36.5575 40.4007 2
      vertex 38.4425 40.4007 2
    endloop
  endfacet
  facet normal -0 0 1
    outer loop
      vertex 36 50 2
      vertex 36.5575 40.4007 2
      vertex 39 50 2
    endloop
  endfacet
  facet normal 0 0 1
    outer loop
      vertex 36.5575 40.4007 2
      vertex 36 50 2
      vertex 35.0325 39.2927 2
    endloop
  endfacet
  facet normal 1 -0 0
    outer loop
      vertex 75 0 2
      vertex 75 150 0
      vertex 75 150 2
    endloop
  endfacet
  facet normal 1 0 0
    outer loop
      vertex 75 150 0
      vertex 75 0 2
      vertex 75 0 0
    endloop
  endfacet
  facet normal 0 0 -1
    outer loop
      vertex 9.07295 12.8532 0
      vertex 29.691 36.9122 0
      vertex 10.9271 12.8532 0
    endloop
  endfacet
  facet normal 0 0 -1
    outer loop
      vertex 29.691 38.0878 0
      vertex 12.4271 138.237 0
      vertex 13 140 0
    endloop
  endfacet
  facet normal -0 0 -1
    outer loop
      vertex 29.691 36.9122 0
      vertex 9.07295 12.8532 0
      vertex 29.691 38.0878 0
    endloop
  endfacet
  facet normal 0 0 -1
    outer loop
      vertex 29.691 38.0878 0
      vertex 10.9271 137.147 0
      vertex 12.4271 138.237 0
    endloop
  endfacet
  facet normal 0 0 -1
    outer loop
      vertex 7.57295 11.7634 0
      vertex 29.691 38.0878 0
      vertex 9.07295 12.8532 0
    endloop
  endfacet
  facet normal 0 0 -1
    outer loop
      vertex 29.691 38.0878 0
      vertex 9.07295 137.147 0
      vertex 10.9271 137.147 0
    endloop
  endfacet
  facet normal 0 0 -1
    outer loop
      vertex 7.57295 138.237 0
      vertex 29.691 38.0878 0
      vertex 7.57295 11.7634 0
    endloop
  endfacet
  facet normal 0 0 -1
    outer loop
      vertex 29.691 38.0878 0
      vertex 7.57295 138.237 0
      vertex 9.07295 137.147 0
    endloop
  endfacet
  facet normal 0 0 -1
    outer loop
      vertex 0 0 0
      vertex 7.57295 11.7634 0
      vertex 7 10 0
    endloop
  endfacet
  facet normal -0 0 -1
    outer loop
      vertex 7.57295 11.7634 0
      vertex 0 0 0
      vertex 7.57295 138.237 0
    endloop
  endfacet
  facet normal 0 0 -1
    outer loop
      vertex 38.4425 40.4007 0
      vertex 39 50 0
      vertex 39.9675 39.2927 0
    endloop
  endfacet
  facet normal 0 0 -1
    outer loop
      vertex 36.5575 40.4007 0
      vertex 39 50 0
      vertex 38.4425 40.4007 0
    endloop
  endfacet
  facet normal 0 0 -1
    outer loop
      vertex 36.5575 40.4007 0
      vertex 36 50 0
      vertex 39 50 0
    endloop
  endfacet
  facet normal 0 0 -1
    outer loop
      vertex 30.809 38.4511 0
      vertex 36 50 0
      vertex 35.0325 39.2927 0
    endloop
  endfacet
  facet normal 0 0 -1
    outer loop
      vertex 35.0325 39.2927 0
      vertex 36 50 0
      vertex 36.5575 40.4007 0
    endloop
  endfacet
  facet normal 0 0 -1
    outer loop
      vertex 67.427 138.237 0
      vertex 75 150 0
      vertex 67.427 11.7634 0
    endloop
  endfacet
  facet normal 0 0 -1
    outer loop
      vertex 75 150 0
      vertex 67.427 138.237 0
      vertex 68 140 0
    endloop
  endfacet
  facet normal 0 0 -1
    outer loop
      vertex 45.5 37.5 0
      vertex 67.427 11.7634 0
      vertex 65.927 12.8532 0
    endloop
  endfacet
  facet normal 0 0 -1
    outer loop
      vertex 67.427 11.7634 0
      vertex 45.5 37.5 0
      vertex 67.427 138.237 0
    endloop
  endfacet
  facet normal 0 0 -1
    outer loop
      vertex 45.5 37.5 0
      vertex 65.927 12.8532 0
      vertex 64.073 12.8532 0
    endloop
  endfacet
  facet normal 0 0 -1
    outer loop
      vertex 67.427 138.237 0
      vertex 45.5 37.5 0
      vertex 65.927 137.147 0
    endloop
  endfacet
  facet normal 0 0 -1
    outer loop
      vertex 44.809 36.5489 0
      vertex 64.073 12.8532 0
      vertex 62.5729 11.7634 0
    endloop
  endfacet
  facet normal 0 0 -1
    outer loop
      vertex 39 50 0
      vertex 65.927 137.147 0
      vertex 45.5 37.5 0
    endloop
  endfacet
  facet normal 0 0 -1
    outer loop
      vertex 38.4425 34.5993 0
      vertex 62.5729 11.7634 0
      vertex 62 10 0
    endloop
  endfacet
  facet normal -0 0 -1
    outer loop
      vertex 65.927 137.147 0
      vertex 39 50 0
      vertex 64.073 137.147 0
    endloop
  endfacet
  facet normal 0 0 -1
    outer loop
      vertex 67.427 11.7634 0
      vertex 75 0 0
      vertex 68 10 0
    endloop
  endfacet
  facet normal 0 0 -1
    outer loop
      vertex 75 0 0
      vertex 67.427 8.23664 0
      vertex 68 10 0
    endloop
  endfacet
  facet normal 0 0 -1
    outer loop
      vertex 75 0 0
      vertex 65.927 7.14683 0
      vertex 67.427 8.23664 0
    endloop
  endfacet
  facet normal 0 0 -1
    outer loop
      vertex 75 0 0
      vertex 64.073 7.14683 0
      vertex 65.927 7.14683 0
    endloop
  endfacet
  facet normal 0 0 -1
    outer loop
      vertex 39 140 0
      vertex 64.073 137.147 0
      vertex 39 50 0
    endloop
  endfacet
  facet normal 0 0 -1
    outer loop
      vertex 13 10 0
      vertex 62 10 0
      vertex 62.5729 8.23664 0
    endloop
  endfacet
  facet normal 0 0 -1
    outer loop
      vertex 64.073 12.8532 0
      vertex 44.809 36.5489 0
      vertex 45.5 37.5 0
    endloop
  endfacet
  facet normal 0 0 -1
    outer loop
      vertex 62.5729 11.7634 0
      vertex 38.4425 34.5993 0
      vertex 44.809 36.5489 0
    endloop
  endfacet
  facet normal 0 0 -1
    outer loop
      vertex 43.691 36.9122 0
      vertex 40.55 37.5 0
      vertex 43.691 38.0878 0
    endloop
  endfacet
  facet normal 0 -0 -1
    outer loop
      vertex 39.9675 35.7073 0
      vertex 44.809 36.5489 0
      vertex 38.4425 34.5993 0
    endloop
  endfacet
  facet normal -0 0 -1
    outer loop
      vertex 43.691 36.9122 0
      vertex 39.9675 35.7073 0
      vertex 40.55 37.5 0
    endloop
  endfacet
  facet normal -0 0 -1
    outer loop
      vertex 44.809 36.5489 0
      vertex 39.9675 35.7073 0
      vertex 43.691 36.9122 0
    endloop
  endfacet
  facet normal 0 0 -1
    outer loop
      vertex 62 10 0
      vertex 13 10 0
      vertex 38.4425 34.5993 0
    endloop
  endfacet
  facet normal -0 0 -1
    outer loop
      vertex 38.4425 34.5993 0
      vertex 13 10 0
      vertex 36.5575 34.5993 0
    endloop
  endfacet
  facet normal 0 0 -1
    outer loop
      vertex 35.0325 35.7073 0
      vertex 31.5 37.5 0
      vertex 34.45 37.5 0
    endloop
  endfacet
  facet normal 0 0 -1
    outer loop
      vertex 12.4271 11.7634 0
      vertex 36.5575 34.5993 0
      vertex 13 10 0
    endloop
  endfacet
  facet normal 0 0 -1
    outer loop
      vertex 35.0325 35.7073 0
      vertex 30.809 36.5489 0
      vertex 31.5 37.5 0
    endloop
  endfacet
  facet normal 0 0 -1
    outer loop
      vertex 36.5575 34.5993 0
      vertex 30.809 36.5489 0
      vertex 35.0325 35.7073 0
    endloop
  endfacet
  facet normal -0 0 -1
    outer loop
      vertex 30.809 36.5489 0
      vertex 12.4271 11.7634 0
      vertex 29.691 36.9122 0
    endloop
  endfacet
  facet normal -0 0 -1
    outer loop
      vertex 36.5575 34.5993 0
      vertex 12.4271 11.7634 0
      vertex 30.809 36.5489 0
    endloop
  endfacet
  facet normal 0 0 -1
    outer loop
      vertex 12.4271 8.23664 0
      vertex 62.5729 8.23664 0
      vertex 64.073 7.14683 0
    endloop
  endfacet
  facet normal 0 0 -1
    outer loop
      vertex 10.9271 7.14683 0
      vertex 64.073 7.14683 0
      vertex 75 0 0
    endloop
  endfacet
  facet normal 0 0 -1
    outer loop
      vertex 62.5729 8.23664 0
      vertex 12.4271 8.23664 0
      vertex 13 10 0
    endloop
  endfacet
  facet normal 0 0 -1
    outer loop
      vertex 64.073 7.14683 0
      vertex 10.9271 7.14683 0
      vertex 12.4271 8.23664 0
    endloop
  endfacet
  facet normal 0 0 -1
    outer loop
      vertex 0 0 0
      vertex 10.9271 7.14683 0
      vertex 75 0 0
    endloop
  endfacet
  facet normal 0 0 -1
    outer loop
      vertex 0 150 0
      vertex 7.57295 138.237 0
      vertex 0 0 0
    endloop
  endfacet
  facet normal -0 0 -1
    outer loop
      vertex 7.57295 8.23664 0
      vertex 0 0 0
      vertex 7 10 0
    endloop
  endfacet
  facet normal -0 0 -1
    outer loop
      vertex 9.07295 7.14683 0
      vertex 0 0 0
      vertex 7.57295 8.23664 0
    endloop
  endfacet
  facet normal -0 0 -1
    outer loop
      vertex 10.9271 7.14683 0
      vertex 0 0 0
      vertex 9.07295 7.14683 0
    endloop
  endfacet
  facet normal 0 0 -1
    outer loop
      vertex 75 0 0
      vertex 67.427 11.7634 0
      vertex 75 150 0
    endloop
  endfacet
  facet normal 0 0 -1
    outer loop
      vertex 67.427 141.763 0
      vertex 75 150 0
      vertex 68 140 0
    endloop
  endfacet
  facet normal 0 0 -1
    outer loop
      vertex 65.927 142.853 0
      vertex 75 150 0
      vertex 67.427 141.763 0
    endloop
  endfacet
  facet normal 0 0 -1
    outer loop
      vertex 64.073 142.853 0
      vertex 75 150 0
      vertex 65.927 142.853 0
    endloop
  endfacet
  facet normal 0 0 -1
    outer loop
      vertex 39 50 0
      vertex 45.5 37.5 0
      vertex 44.809 38.4511 0
    endloop
  endfacet
  facet normal 0 0 -1
    outer loop
      vertex 39.9675 39.2927 0
      vertex 44.809 38.4511 0
      vertex 43.691 38.0878 0
    endloop
  endfacet
  facet normal 0 0 -1
    outer loop
      vertex 39.9675 39.2927 0
      vertex 43.691 38.0878 0
      vertex 40.55 37.5 0
    endloop
  endfacet
  facet normal 0 0 -1
    outer loop
      vertex 44.809 38.4511 0
      vertex 39.9675 39.2927 0
      vertex 39 50 0
    endloop
  endfacet
  facet normal 0 0 -1
    outer loop
      vertex 64.073 137.147 0
      vertex 39 140 0
      vertex 62.5729 138.237 0
    endloop
  endfacet
  facet normal 0 0 -1
    outer loop
      vertex 62.5729 138.237 0
      vertex 39 140 0
      vertex 62 140 0
    endloop
  endfacet
  facet normal 0 0 -1
    outer loop
      vertex 39 140 0
      vertex 62.5729 141.763 0
      vertex 62 140 0
    endloop
  endfacet
  facet normal 0 0 -1
    outer loop
      vertex 39 140 0
      vertex 64.073 142.853 0
      vertex 62.5729 141.763 0
    endloop
  endfacet
  facet normal 0 0 -1
    outer loop
      vertex 39 140 0
      vertex 75 150 0
      vertex 64.073 142.853 0
    endloop
  endfacet
  facet normal 0 0 -1
    outer loop
      vertex 36 140 0
      vertex 75 150 0
      vertex 39 140 0
    endloop
  endfacet
  facet normal 0 0 -1
    outer loop
      vertex 31.5 37.5 0
      vertex 35.0325 39.2927 0
      vertex 34.45 37.5 0
    endloop
  endfacet
  facet normal 0 0 -1
    outer loop
      vertex 35.0325 39.2927 0
      vertex 31.5 37.5 0
      vertex 30.809 38.4511 0
    endloop
  endfacet
  facet normal 0 0 -1
    outer loop
      vertex 29.691 38.0878 0
      vertex 36 50 0
      vertex 30.809 38.4511 0
    endloop
  endfacet
  facet normal -0 0 -1
    outer loop
      vertex 36 50 0
      vertex 29.691 38.0878 0
      vertex 13 140 0
    endloop
  endfacet
  facet normal 0 0 -1
    outer loop
      vertex 10.9271 12.8532 0
      vertex 29.691 36.9122 0
      vertex 12.4271 11.7634 0
    endloop
  endfacet
  facet normal 0 0 -1
    outer loop
      vertex 36 50 0
      vertex 13 140 0
      vertex 36 140 0
    endloop
  endfacet
  facet normal 0 0 -1
    outer loop
      vertex 12.4271 141.763 0
      vertex 36 140 0
      vertex 13 140 0
    endloop
  endfacet
  facet normal 0 0 -1
    outer loop
      vertex 10.9271 142.853 0
      vertex 36 140 0
      vertex 12.4271 141.763 0
    endloop
  endfacet
  facet normal 0 0 -1
    outer loop
      vertex 0 150 0
      vertex 36 140 0
      vertex 10.9271 142.853 0
    endloop
  endfacet
  facet normal 0 0 -1
    outer loop
      vertex 0 150 0
      vertex 10.9271 142.853 0
      vertex 9.07295 142.853 0
    endloop
  endfacet
  facet normal 0 0 -1
    outer loop
      vertex 36 140 0
      vertex 0 150 0
      vertex 75 150 0
    endloop
  endfacet
  facet normal 0 0 -1
    outer loop
      vertex 7.57295 141.763 0
      vertex 0 150 0
      vertex 9.07295 142.853 0
    endloop
  endfacet
  facet normal 0 0 -1
    outer loop
      vertex 7 140 0
      vertex 0 150 0
      vertex 7.57295 141.763 0
    endloop
  endfacet
  facet normal 0 0 -1
    outer loop
      vertex 7.57295 138.237 0
      vertex 0 150 0
      vertex 7 140 0
    endloop
  endfacet
  facet normal 0 -1 0
    outer loop
      vertex 0 0 0
      vertex 75 0 2
      vertex 0 0 2
    endloop
  endfacet
  facet normal 0 -1 -0
    outer loop
      vertex 75 0 2
      vertex 0 0 0
      vertex 75 0 0
    endloop
  endfacet
  facet normal 0 1 -0
    outer loop
      vertex 75 150 0
      vertex 0 150 2
      vertex 75 150 2
    endloop
  endfacet
  facet normal 0 1 0
    outer loop
      vertex 0 150 2
      vertex 75 150 0
      vertex 0 150 0
    endloop
  endfacet
  facet normal -0.951057 -0.309016 0
    outer loop
      vertex 40.55 37.5 0
      vertex 39.9675 39.2927 2
      vertex 39.9675 39.2927 0
    endloop
  endfacet
  facet normal -0.951057 -0.309016 0
    outer loop
      vertex 39.9675 39.2927 2
      vertex 40.55 37.5 0
      vertex 40.55 37.5 2
    endloop
  endfacet
  facet normal 0.587785 -0.809017 0
    outer loop
      vertex 35.0325 39.2927 0
      vertex 36.5575 40.4007 2
      vertex 35.0325 39.2927 2
    endloop
  endfacet
  facet normal 0.587785 -0.809017 0
    outer loop
      vertex 36.5575 40.4007 2
      vertex 35.0325 39.2927 0
      vertex 36.5575 40.4007 0
    endloop
  endfacet
  facet normal -0.587785 -0.809017 0
    outer loop
      vertex 38.4425 40.4007 0
      vertex 39.9675 39.2927 2
      vertex 38.4425 40.4007 2
    endloop
  endfacet
  facet normal -0.587785 -0.809017 -0
    outer loop
      vertex 39.9675 39.2927 2
      vertex 38.4425 40.4007 0
      vertex 39.9675 39.2927 0
    endloop
  endfacet
  facet normal 0.951057 -0.309016 0
    outer loop
      vertex 34.45 37.5 2
      vertex 35.0325 39.2927 0
      vertex 35.0325 39.2927 2
    endloop
  endfacet
  facet normal 0.951057 -0.309016 0
    outer loop
      vertex 35.0325 39.2927 0
      vertex 34.45 37.5 2
      vertex 34.45 37.5 0
    endloop
  endfacet
  facet normal 0 -1 0
    outer loop
      vertex 36.5575 40.4007 0
      vertex 38.4425 40.4007 2
      vertex 36.5575 40.4007 2
    endloop
  endfacet
  facet normal 0 -1 -0
    outer loop
      vertex 38.4425 40.4007 2
      vertex 36.5575 40.4007 0
      vertex 38.4425 40.4007 0
    endloop
  endfacet
  facet normal 0.951057 0.309016 0
    outer loop
      vertex 35.0325 35.7073 2
      vertex 34.45 37.5 0
      vertex 34.45 37.5 2
    endloop
  endfacet
  facet normal 0.951057 0.309016 0
    outer loop
      vertex 34.45 37.5 0
      vertex 35.0325 35.7073 2
      vertex 35.0325 35.7073 0
    endloop
  endfacet
  facet normal 0.587784 0.809018 -0
    outer loop
      vertex 36.5575 34.5993 0
      vertex 35.0325 35.7073 2
      vertex 36.5575 34.5993 2
    endloop
  endfacet
  facet normal 0.587784 0.809018 0
    outer loop
      vertex 35.0325 35.7073 2
      vertex 36.5575 34.5993 0
      vertex 35.0325 35.7073 0
    endloop
  endfacet
  facet normal -0.587784 0.809018 0
    outer loop
      vertex 39.9675 35.7073 0
      vertex 38.4425 34.5993 2
      vertex 39.9675 35.7073 2
    endloop
  endfacet
  facet normal -0.587784 0.809018 0
    outer loop
      vertex 38.4425 34.5993 2
      vertex 39.9675 35.7073 0
      vertex 38.4425 34.5993 0
    endloop
  endfacet
  facet normal -0.951057 0.309016 0
    outer loop
      vertex 39.9675 35.7073 0
      vertex 40.55 37.5 2
      vertex 40.55 37.5 0
    endloop
  endfacet
  facet normal -0.951057 0.309016 0
    outer loop
      vertex 40.55 37.5 2
      vertex 39.9675 35.7073 0
      vertex 39.9675 35.7073 2
    endloop
  endfacet
  facet normal 0 1 -0
    outer loop
      vertex 38.4425 34.5993 0
      vertex 36.5575 34.5993 2
      vertex 38.4425 34.5993 2
    endloop
  endfacet
  facet normal 0 1 0
    outer loop
      vertex 36.5575 34.5993 2
      vertex 38.4425 34.5993 0
      vertex 36.5575 34.5993 0
    endloop
  endfacet
  facet normal -0.809017 -0.587785 0
    outer loop
      vertex 31.5 37.5 0
      vertex 30.809 38.4511 2
      vertex 30.809 38.4511 0
    endloop
  endfacet
  facet normal -0.809017 -0.587785 0
    outer loop
      vertex 30.809 38.4511 2
      vertex 31.5 37.5 0
      vertex 31.5 37.5 2
    endloop
  endfacet
  facet normal 1 -0 0
    outer loop
      vertex 29.691 36.9122 2
      vertex 29.691 38.0878 0
      vertex 29.691 38.0878 2
    endloop
  endfacet
  facet normal 1 0 0
    outer loop
      vertex 29.691 38.0878 0
      vertex 29.691 36.9122 2
      vertex 29.691 36.9122 0
    endloop
  endfacet
  facet normal 0.309019 -0.951056 0
    outer loop
      vertex 29.691 38.0878 0
      vertex 30.809 38.4511 2
      vertex 29.691 38.0878 2
    endloop
  endfacet
  facet normal 0.309019 -0.951056 0
    outer loop
      vertex 30.809 38.4511 2
      vertex 29.691 38.0878 0
      vertex 30.809 38.4511 0
    endloop
  endfacet
  facet normal -0.809017 0.587785 0
    outer loop
      vertex 30.809 36.5489 0
      vertex 31.5 37.5 2
      vertex 31.5 37.5 0
    endloop
  endfacet
  facet normal -0.809017 0.587785 0
    outer loop
      vertex 31.5 37.5 2
      vertex 30.809 36.5489 0
      vertex 30.809 36.5489 2
    endloop
  endfacet
  facet normal 0.309019 0.951056 -0
    outer loop
      vertex 30.809 36.5489 0
      vertex 29.691 36.9122 2
      vertex 30.809 36.5489 2
    endloop
  endfacet
  facet normal 0.309019 0.951056 0
    outer loop
      vertex 29.691 36.9122 2
      vertex 30.809 36.5489 0
      vertex 29.691 36.9122 0
    endloop
  endfacet
  facet normal -0.809017 -0.587785 0
    outer loop
      vertex 45.5 37.5 0
      vertex 44.809 38.4511 2
      vertex 44.809 38.4511 0
    endloop
  endfacet
  facet normal -0.809017 -0.587785 0
    outer loop
      vertex 44.809 38.4511 2
      vertex 45.5 37.5 0
      vertex 45.5 37.5 2
    endloop
  endfacet
  facet normal 1 -0 0
    outer loop
      vertex 43.691 36.9122 2
      vertex 43.691 38.0878 0
      vertex 43.691 38.0878 2
    endloop
  endfacet
  facet normal 1 0 0
    outer loop
      vertex 43.691 38.0878 0
      vertex 43.691 36.9122 2
      vertex 43.691 36.9122 0
    endloop
  endfacet
  facet normal 0.309019 -0.951056 0
    outer loop
      vertex 43.691 38.0878 0
      vertex 44.809 38.4511 2
      vertex 43.691 38.0878 2
    endloop
  endfacet
  facet normal 0.309019 -0.951056 0
    outer loop
      vertex 44.809 38.4511 2
      vertex 43.691 38.0878 0
      vertex 44.809 38.4511 0
    endloop
  endfacet
  facet normal -0.809017 0.587785 0
    outer loop
      vertex 44.809 36.5489 0
      vertex 45.5 37.5 2
      vertex 45.5 37.5 0
    endloop
  endfacet
  facet normal -0.809017 0.587785 0
    outer loop
      vertex 45.5 37.5 2
      vertex 44.809 36.5489 0
      vertex 44.809 36.5489 2
    endloop
  endfacet
  facet normal 0.309019 0.951056 -0
    outer loop
      vertex 44.809 36.5489 0
      vertex 43.691 36.9122 2
      vertex 44.809 36.5489 2
    endloop
  endfacet
  facet normal 0.309019 0.951056 0
    outer loop
      vertex 43.691 36.9122 2
      vertex 44.809 36.5489 0
      vertex 43.691 36.9122 0
    endloop
  endfacet
  facet normal -0.951056 -0.309017 0
    outer loop
      vertex 13 10 0
      vertex 12.4271 11.7634 2
      vertex 12.4271 11.7634 0
    endloop
  endfacet
  facet normal -0.951056 -0.309017 0
    outer loop
      vertex 12.4271 11.7634 2
      vertex 13 10 0
      vertex 13 10 2
    endloop
  endfacet
  facet normal 0 -1 0
    outer loop
      vertex 9.07295 12.8532 0
      vertex 10.9271 12.8532 2
      vertex 9.07295 12.8532 2
    endloop
  endfacet
  facet normal 0 -1 -0
    outer loop
      vertex 10.9271 12.8532 2
      vertex 9.07295 12.8532 0
      vertex 10.9271 12.8532 0
    endloop
  endfacet
  facet normal -0.587785 -0.809017 0
    outer loop
      vertex 10.9271 12.8532 0
      vertex 12.4271 11.7634 2
      vertex 10.9271 12.8532 2
    endloop
  endfacet
  facet normal -0.587785 -0.809017 -0
    outer loop
      vertex 12.4271 11.7634 2
      vertex 10.9271 12.8532 0
      vertex 12.4271 11.7634 0
    endloop
  endfacet
  facet normal 0.951057 0.309017 0
    outer loop
      vertex 7.57295 8.23664 2
      vertex 7 10 0
      vertex 7 10 2
    endloop
  endfacet
  facet normal 0.951057 0.309017 0
    outer loop
      vertex 7 10 0
      vertex 7.57295 8.23664 2
      vertex 7.57295 8.23664 0
    endloop
  endfacet
  facet normal 0.587785 -0.809017 0
    outer loop
      vertex 7.57295 11.7634 0
      vertex 9.07295 12.8532 2
      vertex 7.57295 11.7634 2
    endloop
  endfacet
  facet normal 0.587785 -0.809017 0
    outer loop
      vertex 9.07295 12.8532 2
      vertex 7.57295 11.7634 0
      vertex 9.07295 12.8532 0
    endloop
  endfacet
  facet normal -0.951056 0.309017 0
    outer loop
      vertex 12.4271 8.23664 0
      vertex 13 10 2
      vertex 13 10 0
    endloop
  endfacet
  facet normal -0.951056 0.309017 0
    outer loop
      vertex 13 10 2
      vertex 12.4271 8.23664 0
      vertex 12.4271 8.23664 2
    endloop
  endfacet
  facet normal -0.587785 0.809017 0
    outer loop
      vertex 12.4271 8.23664 0
      vertex 10.9271 7.14683 2
      vertex 12.4271 8.23664 2
    endloop
  endfacet
  facet normal -0.587785 0.809017 0
    outer loop
      vertex 10.9271 7.14683 2
      vertex 12.4271 8.23664 0
      vertex 10.9271 7.14683 0
    endloop
  endfacet
  facet normal 0.587785 0.809017 -0
    outer loop
      vertex 9.07295 7.14683 0
      vertex 7.57295 8.23664 2
      vertex 9.07295 7.14683 2
    endloop
  endfacet
  facet normal 0.587785 0.809017 0
    outer loop
      vertex 7.57295 8.23664 2
      vertex 9.07295 7.14683 0
      vertex 7.57295 8.23664 0
    endloop
  endfacet
  facet normal 0 1 -0
    outer loop
      vertex 10.9271 7.14683 0
      vertex 9.07295 7.14683 2
      vertex 10.9271 7.14683 2
    endloop
  endfacet
  facet normal 0 1 0
    outer loop
      vertex 9.07295 7.14683 2
      vertex 10.9271 7.14683 0
      vertex 9.07295 7.14683 0
    endloop
  endfacet
  facet normal 0.951057 -0.309017 0
    outer loop
      vertex 7 10 2
      vertex 7.57295 11.7634 0
      vertex 7.57295 11.7634 2
    endloop
  endfacet
  facet normal 0.951057 -0.309017 0
    outer loop
      vertex 7.57295 11.7634 0
      vertex 7 10 2
      vertex 7 10 0
    endloop
  endfacet
  facet normal -0.951056 -0.309018 0
    outer loop
      vertex 13 140 0
      vertex 12.4271 141.763 2
      vertex 12.4271 141.763 0
    endloop
  endfacet
  facet normal -0.951056 -0.309018 0
    outer loop
      vertex 12.4271 141.763 2
      vertex 13 140 0
      vertex 13 140 2
    endloop
  endfacet
  facet normal 0 -1 0
    outer loop
      vertex 9.07295 142.853 0
      vertex 10.9271 142.853 2
      vertex 9.07295 142.853 2
    endloop
  endfacet
  facet normal 0 -1 -0
    outer loop
      vertex 10.9271 142.853 2
      vertex 9.07295 142.853 0
      vertex 10.9271 142.853 0
    endloop
  endfacet
  facet normal -0.587785 -0.809017 0
    outer loop
      vertex 10.9271 142.853 0
      vertex 12.4271 141.763 2
      vertex 10.9271 142.853 2
    endloop
  endfacet
  facet normal -0.587785 -0.809017 -0
    outer loop
      vertex 12.4271 141.763 2
      vertex 10.9271 142.853 0
      vertex 12.4271 141.763 0
    endloop
  endfacet
  facet normal 0.587785 -0.809017 0
    outer loop
      vertex 7.57295 141.763 0
      vertex 9.07295 142.853 2
      vertex 7.57295 141.763 2
    endloop
  endfacet
  facet normal 0.587785 -0.809017 0
    outer loop
      vertex 9.07295 142.853 2
      vertex 7.57295 141.763 0
      vertex 9.07295 142.853 0
    endloop
  endfacet
  facet normal -0.587785 0.809017 0
    outer loop
      vertex 12.4271 138.237 0
      vertex 10.9271 137.147 2
      vertex 12.4271 138.237 2
    endloop
  endfacet
  facet normal -0.587785 0.809017 0
    outer loop
      vertex 10.9271 137.147 2
      vertex 12.4271 138.237 0
      vertex 10.9271 137.147 0
    endloop
  endfacet
  facet normal 0.587785 0.809017 -0
    outer loop
      vertex 9.07295 137.147 0
      vertex 7.57295 138.237 2
      vertex 9.07295 137.147 2
    endloop
  endfacet
  facet normal 0.587785 0.809017 0
    outer loop
      vertex 7.57295 138.237 2
      vertex 9.07295 137.147 0
      vertex 7.57295 138.237 0
    endloop
  endfacet
  facet normal 0.951056 -0.309017 0
    outer loop
      vertex 7 140 2
      vertex 7.57295 141.763 0
      vertex 7.57295 141.763 2
    endloop
  endfacet
  facet normal 0.951056 -0.309017 0
    outer loop
      vertex 7.57295 141.763 0
      vertex 7 140 2
      vertex 7 140 0
    endloop
  endfacet
  facet normal -0.951056 0.309018 0
    outer loop
      vertex 12.4271 138.237 0
      vertex 13 140 2
      vertex 13 140 0
    endloop
  endfacet
  facet normal -0.951056 0.309018 0
    outer loop
      vertex 13 140 2
      vertex 12.4271 138.237 0
      vertex 12.4271 138.237 2
    endloop
  endfacet
  facet normal 0 1 -0
    outer loop
      vertex 10.9271 137.147 0
      vertex 9.07295 137.147 2
      vertex 10.9271 137.147 2
    endloop
  endfacet
  facet normal 0 1 0
    outer loop
      vertex 9.07295 137.147 2
      vertex 10.9271 137.147 0
      vertex 9.07295 137.147 0
    endloop
  endfacet
  facet normal 0.951056 0.309017 0
    outer loop
      vertex 7.57295 138.237 2
      vertex 7 140 0
      vertex 7 140 2
    endloop
  endfacet
  facet normal 0.951056 0.309017 0
    outer loop
      vertex 7 140 0
      vertex 7.57295 138.237 2
      vertex 7.57295 138.237 0
    endloop
  endfacet
  facet normal -0.951056 -0.309019 0
    outer loop
      vertex 68 10 0
      vertex 67.427 11.7634 2
      vertex 67.427 11.7634 0
    endloop
  endfacet
  facet normal -0.951056 -0.309019 0
    outer loop
      vertex 67.427 11.7634 2
      vertex 68 10 0
      vertex 68 10 2
    endloop
  endfacet
  facet normal 0 -1 0
    outer loop
      vertex 64.073 12.8532 0
      vertex 65.927 12.8532 2
      vertex 64.073 12.8532 2
    endloop
  endfacet
  facet normal 0 -1 -0
    outer loop
      vertex 65.927 12.8532 2
      vertex 64.073 12.8532 0
      vertex 65.927 12.8532 0
    endloop
  endfacet
  facet normal -0.587785 -0.809017 0
    outer loop
      vertex 65.927 12.8532 0
      vertex 67.427 11.7634 2
      vertex 65.927 12.8532 2
    endloop
  endfacet
  facet normal -0.587785 -0.809017 -0
    outer loop
      vertex 67.427 11.7634 2
      vertex 65.927 12.8532 0
      vertex 67.427 11.7634 0
    endloop
  endfacet
  facet normal 0.587784 -0.809018 0
    outer loop
      vertex 62.5729 11.7634 0
      vertex 64.073 12.8532 2
      vertex 62.5729 11.7634 2
    endloop
  endfacet
  facet normal 0.587784 -0.809018 0
    outer loop
      vertex 64.073 12.8532 2
      vertex 62.5729 11.7634 0
      vertex 64.073 12.8532 0
    endloop
  endfacet
  facet normal -0.587785 0.809017 0
    outer loop
      vertex 67.427 8.23664 0
      vertex 65.927 7.14683 2
      vertex 67.427 8.23664 2
    endloop
  endfacet
  facet normal -0.587785 0.809017 0
    outer loop
      vertex 65.927 7.14683 2
      vertex 67.427 8.23664 0
      vertex 65.927 7.14683 0
    endloop
  endfacet
  facet normal 0.587784 0.809018 -0
    outer loop
      vertex 64.073 7.14683 0
      vertex 62.5729 8.23664 2
      vertex 64.073 7.14683 2
    endloop
  endfacet
  facet normal 0.587784 0.809018 0
    outer loop
      vertex 62.5729 8.23664 2
      vertex 64.073 7.14683 0
      vertex 62.5729 8.23664 0
    endloop
  endfacet
  facet normal 0.951057 -0.309017 0
    outer loop
      vertex 62 10 2
      vertex 62.5729 11.7634 0
      vertex 62.5729 11.7634 2
    endloop
  endfacet
  facet normal 0.951057 -0.309017 0
    outer loop
      vertex 62.5729 11.7634 0
      vertex 62 10 2
      vertex 62 10 0
    endloop
  endfacet
  facet normal 0 1 -0
    outer loop
      vertex 65.927 7.14683 0
      vertex 64.073 7.14683 2
      vertex 65.927 7.14683 2
    endloop
  endfacet
  facet normal 0 1 0
    outer loop
      vertex 64.073 7.14683 2
      vertex 65.927 7.14683 0
      vertex 64.073 7.14683 0
    endloop
  endfacet
  facet normal 0.951057 0.309017 0
    outer loop
      vertex 62.5729 8.23664 2
      vertex 62 10 0
      vertex 62 10 2
    endloop
  endfacet
  facet normal 0.951057 0.309017 0
    outer loop
      vertex 62 10 0
      vertex 62.5729 8.23664 2
      vertex 62.5729 8.23664 0
    endloop
  endfacet
  facet normal -0.951056 0.309019 0
    outer loop
      vertex 67.427 8.23664 0
      vertex 68 10 2
      vertex 68 10 0
    endloop
  endfacet
  facet normal -0.951056 0.309019 0
    outer loop
      vertex 68 10 2
      vertex 67.427 8.23664 0
      vertex 67.427 8.23664 2
    endloop
  endfacet
  facet normal -0.951056 -0.309019 0
    outer loop
      vertex 68 140 0
      vertex 67.427 141.763 2
      vertex 67.427 141.763 0
    endloop
  endfacet
  facet normal -0.951056 -0.309019 0
    outer loop
      vertex 67.427 141.763 2
      vertex 68 140 0
      vertex 68 140 2
    endloop
  endfacet
  facet normal 0.951056 0.309017 0
    outer loop
      vertex 62.5729 138.237 2
      vertex 62 140 0
      vertex 62 140 2
    endloop
  endfacet
  facet normal 0.951056 0.309017 0
    outer loop
      vertex 62 140 0
      vertex 62.5729 138.237 2
      vertex 62.5729 138.237 0
    endloop
  endfacet
  facet normal 0 -1 0
    outer loop
      vertex 64.073 142.853 0
      vertex 65.927 142.853 2
      vertex 64.073 142.853 2
    endloop
  endfacet
  facet normal 0 -1 -0
    outer loop
      vertex 65.927 142.853 2
      vertex 64.073 142.853 0
      vertex 65.927 142.853 0
    endloop
  endfacet
  facet normal -0.587785 -0.809017 0
    outer loop
      vertex 65.927 142.853 0
      vertex 67.427 141.763 2
      vertex 65.927 142.853 2
    endloop
  endfacet
  facet normal -0.587785 -0.809017 -0
    outer loop
      vertex 67.427 141.763 2
      vertex 65.927 142.853 0
      vertex 67.427 141.763 0
    endloop
  endfacet
  facet normal 0.587784 -0.809018 0
    outer loop
      vertex 62.5729 141.763 0
      vertex 64.073 142.853 2
      vertex 62.5729 141.763 2
    endloop
  endfacet
  facet normal 0.587784 -0.809018 0
    outer loop
      vertex 64.073 142.853 2
      vertex 62.5729 141.763 0
      vertex 64.073 142.853 0
    endloop
  endfacet
  facet normal -0.587785 0.809017 0
    outer loop
      vertex 67.427 138.237 0
      vertex 65.927 137.147 2
      vertex 67.427 138.237 2
    endloop
  endfacet
  facet normal -0.587785 0.809017 0
    outer loop
      vertex 65.927 137.147 2
      vertex 67.427 138.237 0
      vertex 65.927 137.147 0
    endloop
  endfacet
  facet normal 0.587784 0.809018 -0
    outer loop
      vertex 64.073 137.147 0
      vertex 62.5729 138.237 2
      vertex 64.073 137.147 2
    endloop
  endfacet
  facet normal 0.587784 0.809018 0
    outer loop
      vertex 62.5729 138.237 2
      vertex 64.073 137.147 0
      vertex 62.5729 138.237 0
    endloop
  endfacet
  facet normal 0.951056 -0.309017 0
    outer loop
      vertex 62 140 2
      vertex 62.5729 141.763 0
      vertex 62.5729 141.763 2
    endloop
  endfacet
  facet normal 0.951056 -0.309017 0
    outer loop
      vertex 62.5729 141.763 0
      vertex 62 140 2
      vertex 62 140 0
    endloop
  endfacet
  facet normal -0.951056 0.309019 0
    outer loop
      vertex 67.427 138.237 0
      vertex 68 140 2
      vertex 68 140 0
    endloop
  endfacet
  facet normal -0.951056 0.309019 0
    outer loop
      vertex 68 140 2
      vertex 67.427 138.237 0
      vertex 67.427 138.237 2
    endloop
  endfacet
  facet normal 0 1 -0
    outer loop
      vertex 65.927 137.147 0
      vertex 64.073 137.147 2
      vertex 65.927 137.147 2
    endloop
  endfacet
  facet normal 0 1 0
    outer loop
      vertex 64.073 137.147 2
      vertex 65.927 137.147 0
      vertex 64.073 137.147 0
    endloop
  endfacet
  facet normal 1 -0 0
    outer loop
      vertex 36 50 2
      vertex 36 140 0
      vertex 36 140 2
    endloop
  endfacet
  facet normal 1 0 0
    outer loop
      vertex 36 140 0
      vertex 36 50 2
      vertex 36 50 0
    endloop
  endfacet
  facet normal -1 0 0
    outer loop
      vertex 39 50 0
      vertex 39 140 2
      vertex 39 140 0
    endloop
  endfacet
  facet normal -1 -0 0
    outer loop
      vertex 39 140 2
      vertex 39 50 0
      vertex 39 50 2
    endloop
  endfacet
  facet normal 0 -1 0
    outer loop
      vertex 36 140 0
      vertex 39 140 2
      vertex 36 140 2
    endloop
  endfacet
  facet normal 0 -1 -0
    outer loop
      vertex 39 140 2
      vertex 36 140 0
      vertex 39 140 0
    endloop
  endfacet
  facet normal 0 1 -0
    outer loop
      vertex 39 50 0
      vertex 36 50 2
      vertex 39 50 2
    endloop
  endfacet
  facet normal 0 1 0
    outer loop
      vertex 36 50 2
      vertex 39 50 0
      vertex 36 50 0
    endloop
  endfacet
endsolid OpenSCAD_Model
